<?xml version="1.0" standalone="no"?>
<svg viewBox="0 0 200 200" xmlns="http://www.w3.org/2000/svg">
  <path fill="#F1C21B" d="M44.8,-70.5C56.7,-62.1,64,-47.3,68.5,-32.7C73.1,-18,74.9,-3.5,74.1,11.5C73.4,26.6,70,42.1,61.8,56.1C53.6,70,40.7,82.3,25.8,85.6C10.9,89,-5.9,83.3,-18.9,74.8C-32,66.3,-41.1,54.9,-53.4,44.3C-65.6,33.7,-80.9,23.7,-85,10.8C-89.1,-2.2,-82,-18.2,-72.8,-31C-63.5,-43.8,-52,-53.4,-39.5,-61.5C-27,-69.6,-13.5,-76.2,1.5,-78.5C16.5,-80.8,32.9,-78.8,44.8,-70.5Z" transform="translate(100 100)" />
</svg>
